<?xml version="1.0" encoding="utf-8"?>
<!-- Generator: Adobe Illustrator 24.1.0, SVG Export Plug-In . SVG Version: 6.00 Build 0)  -->
<svg version="1.1" id="Layer_1" xmlns="http://www.w3.org/2000/svg" xmlns:xlink="http://www.w3.org/1999/xlink" x="0px" y="0px"
	 viewBox="0 0 285.15 66.25" style="enable-background:new 0 0 285.15 66.25;" xml:space="preserve">
<style type="text/css">
	.st0{fill-rule:evenodd;clip-rule:evenodd;fill:#3B3F9A;}
	.st1{fill-rule:evenodd;clip-rule:evenodd;fill:#FEB101;}
	.st2{fill-rule:evenodd;clip-rule:evenodd;fill:#FE0605;}
	.st3{ fill:#535051; }
</style>
<g>
	<g>
		<path class="st0" d="M34.45,50.84c-6.11,0.07-12.21-3-15.08-8.5c-3.1-5.94-2.66-12.55-0.91-18.9c2.09-7.86,6.11-14.71,11.13-20.89
			c-5.53,3.88-10.29,8.27-14.57,13.77c-3.85,5.06-6.71,10.09-8.53,15.93C4.74,38.05,3.9,44.4,7.3,49.93
			c1.01,1.65,2.36,2.8,4.05,3.78c3.51,1.99,7.45,2.06,11.3,1.48C26.9,54.45,30.78,52.9,34.45,50.84L34.45,50.84z"/>
		<path class="st0" d="M34.45,50.84c-6.11,0.07-12.21-3-15.08-8.5c-2.16-4.15-2.6-8.6-2.09-13.09c-2.97-1.05-5.9-1.76-8.84-2.16
			c-0.74,1.65-1.42,3.37-1.96,5.16C4.74,38.05,3.9,44.4,7.3,49.93c1.01,1.65,2.36,2.8,4.05,3.78c3.51,1.99,7.45,2.06,11.3,1.48
			C26.9,54.45,30.78,52.9,34.45,50.84L34.45,50.84z"/>
		<path class="st1" d="M19.71,30.46c1.85-3.31,4.76-6.04,8.36-7.52c3.68-1.49,7.79-1.49,11.57-0.17
			C52.13,27.15,59.92,38.8,64.51,50.4c-1.01-11.71-5.02-22.91-12.71-32.5c-5.47-6.78-14.57-13.63-23.21-8.44
			C21.23,13.96,19.88,22.77,19.71,30.46L19.71,30.46z"/>
		<path class="st2" d="M45.15,27.9c1.96,3.21,2.9,7.09,2.4,10.9c-0.54,3.88-2.6,7.39-5.63,9.92c-10.09,8.47-24.18,9.31-36.73,7.42
			c10.79,4.99,22.67,7.15,34.94,5.4c8.67-1.28,19.26-5.64,18.99-15.59C58.87,37.41,51.79,31.88,45.15,27.9L45.15,27.9z"/>
		<path class="st2" d="M43.63,47.06c-0.54,0.61-1.11,1.15-1.72,1.65c-10.09,8.47-24.18,9.31-36.73,7.42
			c10.79,4.99,22.67,7.15,34.94,5.4c4.05-0.61,8.47-1.86,12.04-4.05C49.53,53.71,46.66,50.24,43.63,47.06L43.63,47.06z"/>
		<path class="st0" d="M34.45,50.84c-6.11,0.07-12.21-3-15.08-8.5c-2.16-4.15-2.6-8.6-2.09-13.09c-2.97-1.05-5.9-1.76-8.84-2.16
			c-0.74,1.65-1.42,3.37-1.96,5.16C4.74,38.05,3.9,44.4,7.3,49.93c1.01,1.65,2.36,2.8,4.05,3.78c3.51,1.99,7.45,2.06,11.3,1.48
			C26.9,54.45,30.78,52.9,34.45,50.84L34.45,50.84z"/>
	</g>
	<g>
		<g>
			<path class="st3" d="M70.26,24.79c0-0.93,0.27-1.68,0.8-2.24c0.53-0.56,1.21-0.97,2.03-1.21c0.67-0.19,1.14-0.41,1.43-0.64
				c0.29-0.24,0.43-0.51,0.43-0.81c0-0.27-0.11-0.49-0.31-0.68c-0.21-0.19-0.47-0.28-0.79-0.28c-0.33,0-0.61,0.11-0.82,0.33
				c-0.21,0.22-0.32,0.5-0.32,0.83h-1.73c0-0.36,0.08-0.7,0.23-1c0.15-0.3,0.36-0.57,0.62-0.79c0.26-0.22,0.56-0.39,0.9-0.51
				c0.34-0.12,0.71-0.19,1.1-0.19c0.4,0,0.77,0.06,1.12,0.17s0.64,0.27,0.89,0.47s0.44,0.43,0.58,0.7c0.14,0.27,0.21,0.55,0.21,0.86
				c0,0.46-0.13,0.83-0.38,1.12c-0.25,0.29-0.58,0.52-0.99,0.68v0.04c0.39,0.08,0.74,0.21,1.06,0.4s0.58,0.42,0.8,0.7
				c0.22,0.28,0.39,0.59,0.51,0.94s0.18,0.72,0.18,1.11c0,0.54-0.1,1.03-0.29,1.46s-0.46,0.8-0.81,1.1s-0.74,0.53-1.2,0.69
				s-0.95,0.24-1.47,0.24c-0.51,0-1-0.08-1.45-0.24c-0.45-0.16-0.85-0.39-1.19-0.69c-0.34-0.3-0.61-0.67-0.81-1.1
				S70.26,25.33,70.26,24.79z M76.02,24.77c0-0.69-0.19-1.22-0.56-1.61s-0.86-0.59-1.45-0.59c-0.57,0-1.04,0.2-1.41,0.59
				s-0.55,0.93-0.55,1.61c0,0.31,0.05,0.6,0.15,0.86c0.1,0.26,0.24,0.48,0.41,0.66c0.17,0.18,0.38,0.32,0.62,0.42
				c0.24,0.1,0.5,0.15,0.79,0.15c0.29,0,0.56-0.05,0.81-0.15c0.24-0.1,0.46-0.24,0.64-0.42c0.18-0.18,0.32-0.4,0.42-0.66
				C75.97,25.37,76.02,25.09,76.02,24.77z"/>
			<path class="st3" d="M78.73,24.8c0-0.32,0.04-0.63,0.12-0.92c0.08-0.29,0.18-0.55,0.29-0.78h1.72c-0.23,0.56-0.34,1.11-0.34,1.64
				c0,0.3,0.04,0.59,0.13,0.84c0.09,0.26,0.21,0.48,0.38,0.66c0.17,0.19,0.37,0.33,0.6,0.44s0.49,0.16,0.78,0.16
				s0.55-0.05,0.79-0.16s0.44-0.26,0.6-0.44c0.16-0.19,0.29-0.41,0.38-0.66c0.09-0.26,0.14-0.54,0.14-0.84
				c0-0.49-0.07-0.91-0.2-1.28c-0.13-0.37-0.3-0.68-0.5-0.95c-0.1-0.13-0.23-0.28-0.36-0.44s-0.3-0.34-0.48-0.53
				c-0.22-0.24-0.42-0.48-0.6-0.71c-0.18-0.24-0.34-0.5-0.46-0.79c-0.13-0.29-0.23-0.6-0.31-0.96s-0.12-0.77-0.13-1.26h1.79
				c0,0.62,0.1,1.15,0.31,1.59s0.5,0.88,0.89,1.31c0.22,0.24,0.41,0.46,0.57,0.66s0.3,0.38,0.43,0.54c0.24,0.33,0.44,0.73,0.6,1.2
				c0.17,0.48,0.26,1.03,0.26,1.67c0,0.5-0.09,0.96-0.29,1.38c-0.19,0.42-0.45,0.79-0.79,1.1c-0.33,0.31-0.73,0.55-1.18,0.73
				c-0.45,0.18-0.94,0.26-1.46,0.26c-0.53,0-1.02-0.09-1.47-0.26s-0.83-0.42-1.16-0.72c-0.32-0.3-0.58-0.67-0.76-1.09
				C78.82,25.77,78.73,25.31,78.73,24.8z"/>
			<path class="st3" d="M87.47,20.53c0-0.9,0.27-1.57,0.8-2.02c0.53-0.45,1.33-0.68,2.39-0.68h3.33v1.44h-3.23
				c-0.99,0-1.49,0.45-1.49,1.34v1.6h0.03c0.22-0.34,0.55-0.62,0.98-0.82c0.43-0.2,0.91-0.31,1.42-0.31c0.45,0,0.87,0.09,1.26,0.26
				c0.4,0.17,0.74,0.42,1.04,0.73c0.3,0.31,0.54,0.69,0.71,1.12c0.17,0.43,0.26,0.91,0.26,1.44c0,0.54-0.09,1.04-0.29,1.49
				c-0.19,0.45-0.45,0.83-0.79,1.15c-0.33,0.32-0.73,0.57-1.19,0.74s-0.95,0.26-1.49,0.26c-0.54,0-1.05-0.09-1.51-0.26
				s-0.86-0.42-1.19-0.74c-0.33-0.31-0.59-0.7-0.78-1.14c-0.19-0.45-0.28-0.94-0.28-1.49V20.53z M93.17,24.7
				c0-0.67-0.18-1.2-0.54-1.59c-0.36-0.39-0.83-0.59-1.41-0.59c-0.59,0-1.07,0.2-1.45,0.59c-0.38,0.39-0.56,0.92-0.56,1.6
				c0,0.33,0.05,0.63,0.15,0.89c0.1,0.26,0.24,0.49,0.42,0.68c0.18,0.19,0.4,0.34,0.64,0.44c0.25,0.1,0.51,0.15,0.8,0.15
				s0.55-0.05,0.79-0.15c0.24-0.1,0.44-0.25,0.61-0.44c0.17-0.19,0.3-0.42,0.4-0.68C93.12,25.33,93.17,25.04,93.17,24.7z"/>
			<path class="st3" d="M95.93,24.8c0-0.32,0.04-0.63,0.12-0.92c0.08-0.29,0.18-0.55,0.29-0.78h1.72c-0.23,0.56-0.34,1.11-0.34,1.64
				c0,0.3,0.04,0.59,0.13,0.84c0.09,0.26,0.21,0.48,0.38,0.66c0.17,0.19,0.37,0.33,0.6,0.44s0.49,0.16,0.78,0.16
				s0.55-0.05,0.79-0.16s0.44-0.26,0.6-0.44c0.16-0.19,0.29-0.41,0.38-0.66c0.09-0.26,0.14-0.54,0.14-0.84
				c0-0.49-0.07-0.91-0.2-1.28c-0.13-0.37-0.3-0.68-0.5-0.95c-0.1-0.13-0.23-0.28-0.36-0.44s-0.3-0.34-0.48-0.53
				c-0.22-0.24-0.42-0.48-0.6-0.71c-0.18-0.24-0.34-0.5-0.46-0.79c-0.13-0.29-0.23-0.6-0.31-0.96s-0.12-0.77-0.13-1.26h1.79
				c0,0.62,0.1,1.15,0.31,1.59s0.5,0.88,0.89,1.31c0.22,0.24,0.41,0.46,0.57,0.66s0.3,0.38,0.43,0.54c0.24,0.33,0.44,0.73,0.6,1.2
				c0.17,0.48,0.26,1.03,0.26,1.67c0,0.5-0.09,0.96-0.29,1.38c-0.19,0.42-0.45,0.79-0.79,1.1c-0.33,0.31-0.73,0.55-1.18,0.73
				c-0.45,0.18-0.94,0.26-1.46,0.26c-0.53,0-1.02-0.09-1.47-0.26s-0.83-0.42-1.16-0.72c-0.32-0.3-0.58-0.67-0.76-1.09
				C96.02,25.77,95.93,25.31,95.93,24.8z"/>
			<path class="st3" d="M114.63,21.27c0-0.8-0.13-1.39-0.38-1.76c-0.25-0.37-0.61-0.56-1.06-0.56c-0.4,0-0.74,0.17-1.01,0.5
				c-0.27,0.33-0.41,0.85-0.41,1.56v3.3c0,0.63-0.09,1.19-0.26,1.68c-0.17,0.49-0.42,0.91-0.73,1.24s-0.69,0.6-1.12,0.77
				s-0.91,0.26-1.44,0.26c-0.51,0-0.99-0.09-1.44-0.26s-0.83-0.43-1.15-0.77c-0.32-0.34-0.58-0.75-0.76-1.24
				c-0.18-0.49-0.27-1.05-0.27-1.67v-2.79c0-0.62,0.09-1.17,0.26-1.67c0.17-0.49,0.41-0.91,0.71-1.24c0.31-0.34,0.67-0.6,1.09-0.78
				c0.42-0.18,0.89-0.27,1.39-0.27c0.63,0,1.18,0.14,1.67,0.42c0.48,0.28,0.84,0.66,1.08,1.16h0.06c0.09-0.24,0.23-0.45,0.41-0.64
				s0.37-0.36,0.59-0.49c0.22-0.14,0.46-0.25,0.71-0.32c0.26-0.08,0.51-0.11,0.76-0.11c0.45,0,0.86,0.08,1.24,0.25
				c0.38,0.17,0.71,0.41,0.98,0.73s0.48,0.71,0.64,1.16c0.15,0.46,0.23,0.98,0.23,1.56v2.11c0,0.92-0.1,1.79-0.3,2.63
				c-0.19,0.84-0.45,1.51-0.77,2h-1.81c0.16-0.28,0.31-0.58,0.44-0.92c0.13-0.34,0.25-0.72,0.34-1.14c0.2-0.83,0.3-1.67,0.3-2.52
				V21.27z M110.02,21.63c0-0.87-0.14-1.52-0.42-1.96c-0.28-0.44-0.74-0.67-1.36-0.67c-0.6,0-1.06,0.23-1.37,0.68
				c-0.31,0.45-0.46,1.1-0.46,1.94v2.63c0,0.86,0.15,1.51,0.46,1.95c0.31,0.44,0.76,0.67,1.37,0.67c0.6,0,1.05-0.22,1.34-0.66
				c0.3-0.44,0.44-1.09,0.44-1.96V21.63z"/>
			<path class="st3" d="M119.05,26.63v-1.24h1.42v-0.06c-0.36-0.13-0.71-0.32-1.04-0.56c-0.33-0.24-0.63-0.52-0.88-0.85
				c-0.25-0.33-0.45-0.7-0.6-1.12s-0.22-0.87-0.22-1.36c0-0.58,0.07-1.11,0.21-1.58c0.14-0.47,0.34-0.88,0.61-1.21
				c0.26-0.34,0.58-0.6,0.94-0.79c0.37-0.19,0.77-0.28,1.21-0.28c0.47,0,0.89,0.13,1.28,0.38c0.39,0.25,0.66,0.59,0.82,1.02h0.06
				c0.07-0.21,0.17-0.4,0.3-0.58c0.13-0.18,0.29-0.32,0.47-0.44c0.18-0.12,0.37-0.21,0.58-0.28s0.41-0.1,0.61-0.1
				c0.22,0,0.44,0.03,0.65,0.09c0.21,0.06,0.41,0.16,0.59,0.28c0.18,0.12,0.33,0.27,0.46,0.44c0.13,0.17,0.23,0.37,0.29,0.59h0.06
				c0.19-0.46,0.46-0.81,0.82-1.04s0.78-0.36,1.26-0.36c0.44,0,0.84,0.09,1.2,0.27c0.36,0.18,0.67,0.44,0.94,0.77
				c0.26,0.33,0.47,0.73,0.61,1.19c0.15,0.46,0.22,0.97,0.22,1.52c0,1.15-0.18,2.16-0.54,3.02h-1.79c0.36-0.89,0.54-1.87,0.54-2.96
				c0-0.78-0.11-1.38-0.34-1.79s-0.54-0.62-0.94-0.62c-0.34,0-0.62,0.14-0.84,0.42c-0.22,0.28-0.33,0.64-0.33,1.08v2.62h-1.67v-2.63
				c0-0.46-0.11-0.82-0.32-1.09c-0.21-0.27-0.5-0.4-0.85-0.4s-0.64,0.14-0.86,0.41c-0.22,0.28-0.33,0.63-0.33,1.07v2.63h-1.67v-2.6
				c0-0.47-0.1-0.84-0.3-1.11c-0.2-0.27-0.48-0.41-0.83-0.41c-0.4,0-0.72,0.21-0.96,0.64s-0.36,1.01-0.36,1.75
				c-0.01,0.55,0.09,1.06,0.3,1.52c0.21,0.46,0.49,0.85,0.83,1.18s0.72,0.59,1.14,0.79c0.42,0.2,0.83,0.31,1.23,0.34l0.5,0.04
				l0.77,0.08c0.19,0.02,0.38,0.04,0.56,0.06c0.18,0.02,0.35,0.05,0.51,0.08c0.31,0.04,0.59,0.09,0.83,0.16
				c0.77,0.21,1.35,0.51,1.74,0.91c0.39,0.4,0.6,0.9,0.65,1.5h-1.9c-0.09-0.5-0.44-0.85-1.06-1.07c-0.63-0.22-1.37-0.33-2.22-0.33
				H119.05z"/>
			<path class="st3" d="M132.94,25.19c0-0.53,0.09-1.01,0.26-1.43h1.71c-0.07,0.24-0.11,0.45-0.14,0.63
				c-0.03,0.18-0.04,0.39-0.04,0.63c0,0.57,0.17,1.02,0.5,1.35c0.33,0.33,0.77,0.49,1.31,0.49c0.57,0,1.01-0.18,1.33-0.54
				s0.47-0.82,0.47-1.39v-4.02c0-0.27-0.04-0.52-0.11-0.75s-0.18-0.44-0.31-0.61c-0.14-0.17-0.31-0.31-0.52-0.41
				c-0.21-0.1-0.45-0.15-0.71-0.15c-0.26,0-0.49,0.04-0.69,0.13c-0.21,0.09-0.38,0.2-0.52,0.35c-0.14,0.15-0.25,0.32-0.33,0.51
				s-0.11,0.4-0.11,0.61c0,0.25,0.03,0.49,0.09,0.73h-1.76c-0.08-0.25-0.11-0.52-0.11-0.83c0-0.39,0.08-0.76,0.25-1.12
				c0.17-0.35,0.4-0.66,0.7-0.93c0.3-0.27,0.66-0.48,1.09-0.64s0.89-0.24,1.41-0.24c0.53,0,1.01,0.08,1.44,0.25
				c0.43,0.17,0.79,0.4,1.09,0.69s0.53,0.63,0.69,1.03s0.24,0.82,0.24,1.26v4.16c0,0.5-0.09,0.95-0.26,1.35
				c-0.18,0.41-0.42,0.75-0.74,1.04c-0.32,0.29-0.7,0.51-1.14,0.67c-0.44,0.16-0.93,0.24-1.46,0.24c-0.54,0-1.03-0.07-1.47-0.22
				s-0.81-0.35-1.13-0.62c-0.31-0.27-0.56-0.59-0.73-0.97C133.02,26.08,132.94,25.66,132.94,25.19z"/>
			<path class="st3" d="M141.48,24.66c0-0.5,0.08-0.96,0.24-1.37c0.16-0.41,0.38-0.77,0.66-1.07s0.61-0.55,0.99-0.74
				c0.38-0.19,0.79-0.32,1.24-0.39v-0.26c0-0.2-0.04-0.37-0.11-0.5c-0.07-0.13-0.16-0.25-0.25-0.34c-0.1-0.09-0.19-0.16-0.28-0.21
				c-0.09-0.05-0.16-0.09-0.19-0.12c-0.13-0.09-0.26-0.19-0.37-0.29c-0.11-0.1-0.21-0.21-0.29-0.34c-0.08-0.13-0.14-0.29-0.18-0.49
				s-0.06-0.43-0.06-0.71h1.69c0,0.25,0.05,0.45,0.16,0.61c0.11,0.16,0.27,0.32,0.49,0.49c0.17,0.12,0.32,0.24,0.46,0.34
				c0.13,0.11,0.25,0.22,0.34,0.35c0.09,0.13,0.17,0.27,0.23,0.44c0.06,0.16,0.09,0.36,0.1,0.59v0.53c0.38,0.09,0.74,0.24,1.06,0.44
				c0.33,0.2,0.61,0.45,0.85,0.75c0.24,0.3,0.42,0.64,0.56,1.03c0.13,0.39,0.2,0.81,0.2,1.26c0,0.56-0.1,1.07-0.29,1.51
				c-0.2,0.44-0.46,0.82-0.8,1.14s-0.74,0.55-1.19,0.72c-0.46,0.17-0.95,0.25-1.49,0.25c-0.52,0-1.01-0.08-1.47-0.25
				c-0.46-0.17-0.86-0.41-1.19-0.72s-0.61-0.69-0.8-1.14C141.58,25.72,141.48,25.22,141.48,24.66z M147.26,24.66
				c0-0.69-0.19-1.22-0.56-1.61c-0.38-0.39-0.86-0.58-1.45-0.58c-0.57,0-1.04,0.19-1.41,0.58c-0.37,0.39-0.55,0.92-0.55,1.61
				c0,0.69,0.18,1.22,0.55,1.62c0.37,0.39,0.84,0.59,1.41,0.59c0.59,0,1.07-0.2,1.45-0.59C147.07,25.88,147.26,25.35,147.26,24.66z"
				/>
			<path class="st3" d="M155.76,21.44c0-0.34-0.04-0.67-0.11-0.96c-0.08-0.3-0.19-0.56-0.34-0.78c-0.15-0.22-0.34-0.39-0.57-0.51
				c-0.23-0.12-0.5-0.19-0.8-0.19c-0.31,0-0.57,0.06-0.8,0.19c-0.23,0.12-0.42,0.3-0.57,0.51c-0.15,0.22-0.27,0.48-0.34,0.78
				c-0.08,0.3-0.11,0.62-0.11,0.96v1.89c0,0.88,0.09,1.74,0.27,2.59c0.09,0.43,0.2,0.82,0.31,1.17s0.23,0.67,0.36,0.94h-1.77
				c-0.27-0.51-0.5-1.21-0.69-2.09c-0.18-0.85-0.27-1.73-0.27-2.66v-1.94c0-0.57,0.09-1.09,0.27-1.56c0.18-0.47,0.43-0.86,0.75-1.19
				c0.32-0.32,0.7-0.57,1.14-0.75c0.44-0.18,0.93-0.26,1.45-0.26c0.52,0,1.01,0.09,1.45,0.27c0.44,0.18,0.83,0.44,1.15,0.76
				c0.32,0.33,0.58,0.72,0.76,1.19c0.18,0.46,0.27,0.98,0.27,1.55v1.93c0,0.88-0.1,1.76-0.29,2.66c-0.18,0.86-0.41,1.55-0.69,2.09
				h-1.77c0.13-0.28,0.25-0.59,0.36-0.94c0.11-0.35,0.21-0.74,0.31-1.18c0.18-0.85,0.27-1.71,0.27-2.59V21.44z"/>
			<path class="st3" d="M159.21,17.83h1.8v6.93c0,0.63,0.17,1.14,0.51,1.53c0.34,0.39,0.78,0.59,1.32,0.59
				c0.27,0,0.51-0.05,0.74-0.14c0.22-0.09,0.42-0.21,0.58-0.37c0.16-0.15,0.29-0.33,0.37-0.54c0.09-0.21,0.13-0.43,0.13-0.67
				c0-0.2-0.02-0.38-0.05-0.53c-0.03-0.15-0.08-0.29-0.14-0.42c-0.06-0.13-0.13-0.25-0.21-0.37s-0.18-0.25-0.29-0.39
				c-0.12-0.14-0.22-0.29-0.32-0.43c-0.1-0.14-0.19-0.29-0.26-0.46s-0.13-0.34-0.16-0.54c-0.04-0.2-0.06-0.43-0.07-0.69h1.73
				c0.02,0.3,0.08,0.57,0.19,0.79c0.11,0.22,0.27,0.48,0.49,0.76c0.09,0.13,0.18,0.25,0.26,0.36s0.14,0.22,0.2,0.33
				c0.06,0.11,0.11,0.22,0.16,0.34s0.09,0.25,0.14,0.41c0.09,0.3,0.13,0.65,0.13,1.03c0,0.44-0.1,0.84-0.29,1.19
				s-0.46,0.67-0.79,0.92c-0.33,0.26-0.71,0.46-1.15,0.59c-0.44,0.14-0.9,0.21-1.39,0.21c-0.52,0-1.01-0.08-1.45-0.23
				s-0.83-0.37-1.15-0.67c-0.32-0.29-0.58-0.64-0.76-1.06c-0.18-0.41-0.27-0.89-0.27-1.42V17.83z"/>
			<path class="st3" d="M171.48,24.63c0-0.52,0.09-1,0.26-1.44c0.17-0.43,0.4-0.8,0.69-1.11c0.29-0.3,0.63-0.54,1.03-0.71
				c0.4-0.17,0.82-0.26,1.26-0.26c0.51,0,0.99,0.1,1.43,0.31s0.77,0.48,1,0.82h0.03v-1.36c0-0.31-0.05-0.59-0.15-0.82
				c-0.1-0.23-0.23-0.43-0.39-0.59s-0.35-0.28-0.58-0.36c-0.22-0.08-0.46-0.12-0.69-0.12c-0.44,0-0.82,0.11-1.15,0.33
				c-0.33,0.22-0.52,0.5-0.56,0.86h-1.84c0-0.3,0.09-0.61,0.28-0.93c0.19-0.31,0.44-0.6,0.75-0.84c0.31-0.25,0.68-0.45,1.11-0.61
				s0.88-0.23,1.38-0.22c0.54,0,1.04,0.08,1.49,0.23c0.45,0.15,0.84,0.37,1.16,0.65c0.32,0.28,0.57,0.62,0.74,1.01
				c0.18,0.4,0.26,0.84,0.26,1.32v3.84c0,0.54-0.09,1.04-0.28,1.49c-0.19,0.45-0.45,0.83-0.78,1.14c-0.33,0.31-0.73,0.56-1.19,0.74
				c-0.46,0.18-0.96,0.26-1.51,0.26c-0.53,0-1.03-0.09-1.49-0.26c-0.46-0.18-0.85-0.42-1.19-0.74c-0.33-0.32-0.6-0.7-0.79-1.15
				C171.58,25.67,171.48,25.17,171.48,24.63z M177.24,24.7c0-0.67-0.19-1.2-0.56-1.59s-0.86-0.59-1.45-0.59
				c-0.58,0-1.05,0.2-1.41,0.59s-0.54,0.92-0.54,1.59c0,0.66,0.18,1.18,0.54,1.57c0.36,0.39,0.83,0.59,1.4,0.59
				c0.29,0,0.55-0.05,0.8-0.15c0.25-0.1,0.46-0.25,0.64-0.44c0.18-0.19,0.32-0.42,0.42-0.68C177.19,25.33,177.24,25.04,177.24,24.7z
				"/>
			<path class="st3" d="M180.23,24.8c0-0.32,0.04-0.63,0.12-0.92c0.08-0.29,0.18-0.55,0.29-0.78h1.72
				c-0.23,0.56-0.34,1.11-0.34,1.64c0,0.3,0.04,0.59,0.13,0.84c0.09,0.26,0.21,0.48,0.38,0.66c0.17,0.19,0.37,0.33,0.6,0.44
				s0.49,0.16,0.78,0.16s0.55-0.05,0.79-0.16s0.44-0.26,0.6-0.44c0.16-0.19,0.29-0.41,0.38-0.66c0.09-0.26,0.14-0.54,0.14-0.84
				c0-0.49-0.07-0.91-0.2-1.28c-0.13-0.37-0.3-0.68-0.5-0.95c-0.1-0.13-0.23-0.28-0.36-0.44s-0.3-0.34-0.48-0.53
				c-0.22-0.24-0.42-0.48-0.6-0.71c-0.18-0.24-0.34-0.5-0.46-0.79c-0.13-0.29-0.23-0.6-0.31-0.96s-0.12-0.77-0.13-1.26h1.79
				c0,0.62,0.1,1.15,0.31,1.59s0.5,0.88,0.89,1.31c0.22,0.24,0.41,0.46,0.57,0.66s0.3,0.38,0.43,0.54c0.24,0.33,0.44,0.73,0.6,1.2
				c0.17,0.48,0.26,1.03,0.26,1.67c0,0.5-0.09,0.96-0.29,1.38c-0.19,0.42-0.45,0.79-0.79,1.1c-0.33,0.31-0.73,0.55-1.18,0.73
				c-0.45,0.18-0.94,0.26-1.46,0.26c-0.53,0-1.02-0.09-1.47-0.26s-0.83-0.42-1.16-0.72c-0.32-0.3-0.58-0.67-0.76-1.09
				C180.32,25.77,180.23,25.31,180.23,24.8z"/>
			<path class="st3" d="M196.96,24.57c0-0.7-0.12-1.22-0.36-1.57c-0.24-0.35-0.56-0.53-0.96-0.53c-0.33,0-0.6,0.14-0.81,0.41
				s-0.31,0.64-0.31,1.09v2.21h-1.64v-2.2c0-0.49-0.1-0.86-0.3-1.12c-0.2-0.26-0.46-0.39-0.79-0.39c-0.38,0-0.7,0.17-0.96,0.49
				c-0.26,0.33-0.39,0.86-0.39,1.58c0,1.28,0.33,2.44,0.99,3.49h-1.77c-0.35-0.56-0.61-1.15-0.76-1.77
				c-0.16-0.67-0.24-1.5-0.24-2.49c0-1.63,0.37-2.85,1.1-3.66c0.73-0.81,1.75-1.33,3.04-1.57l1.33-0.26
				c0.44-0.08,0.71-0.23,0.82-0.46h1.79c-0.07,0.51-0.27,0.92-0.62,1.21c-0.35,0.29-0.9,0.5-1.65,0.62l-1.26,0.2
				c-0.83,0.14-1.53,0.39-2.09,0.74c-0.57,0.35-0.92,0.86-1.06,1.54h0.04c0.18-0.33,0.44-0.59,0.79-0.76
				c0.34-0.18,0.69-0.26,1.03-0.26c0.4,0,0.76,0.11,1.07,0.32c0.31,0.21,0.55,0.54,0.72,0.96h0.04c0.2-0.41,0.49-0.73,0.86-0.95
				c0.38-0.22,0.8-0.34,1.26-0.34c0.4,0,0.77,0.08,1.12,0.24s0.65,0.39,0.91,0.68c0.26,0.29,0.46,0.64,0.61,1.06
				c0.15,0.42,0.23,0.87,0.23,1.38c0,0.74-0.08,1.4-0.25,1.97c-0.17,0.57-0.42,1.11-0.75,1.6h-1.77c0.33-0.54,0.58-1.09,0.74-1.64
				C196.88,25.84,196.96,25.23,196.96,24.57z"/>
			<path class="st3" d="M210.08,21.27c0-0.8-0.13-1.39-0.38-1.76c-0.25-0.37-0.61-0.56-1.06-0.56c-0.4,0-0.74,0.17-1.01,0.5
				c-0.27,0.33-0.41,0.85-0.41,1.56v3.3c0,0.63-0.09,1.19-0.26,1.68c-0.17,0.49-0.42,0.91-0.73,1.24s-0.69,0.6-1.12,0.77
				s-0.91,0.26-1.44,0.26c-0.51,0-0.99-0.09-1.44-0.26s-0.83-0.43-1.15-0.77c-0.32-0.34-0.58-0.75-0.76-1.24
				c-0.18-0.49-0.27-1.05-0.27-1.67v-2.79c0-0.62,0.09-1.17,0.26-1.67c0.17-0.49,0.41-0.91,0.71-1.24c0.31-0.34,0.67-0.6,1.09-0.78
				c0.42-0.18,0.89-0.27,1.39-0.27c0.63,0,1.18,0.14,1.67,0.42c0.48,0.28,0.84,0.66,1.08,1.16h0.06c0.09-0.24,0.23-0.45,0.41-0.64
				s0.37-0.36,0.59-0.49c0.22-0.14,0.46-0.25,0.71-0.32c0.26-0.08,0.51-0.11,0.76-0.11c0.45,0,0.86,0.08,1.24,0.25
				c0.38,0.17,0.71,0.41,0.98,0.73s0.48,0.71,0.64,1.16c0.15,0.46,0.23,0.98,0.23,1.56v2.11c0,0.92-0.1,1.79-0.3,2.63
				c-0.19,0.84-0.45,1.51-0.77,2H209c0.16-0.28,0.31-0.58,0.44-0.92c0.13-0.34,0.25-0.72,0.34-1.14c0.2-0.83,0.3-1.67,0.3-2.52
				V21.27z M205.47,21.63c0-0.87-0.14-1.52-0.42-1.96c-0.28-0.44-0.74-0.67-1.36-0.67c-0.6,0-1.06,0.23-1.37,0.68
				c-0.31,0.45-0.46,1.1-0.46,1.94v2.63c0,0.86,0.15,1.51,0.46,1.95c0.31,0.44,0.76,0.67,1.37,0.67c0.6,0,1.05-0.22,1.34-0.66
				c0.3-0.44,0.44-1.09,0.44-1.96V21.63z"/>
			<path class="st3" d="M213.14,25.29c0-0.49,0.08-0.92,0.24-1.3h1.69c-0.11,0.31-0.16,0.66-0.16,1.03c0,0.59,0.18,1.05,0.53,1.37
				s0.81,0.48,1.37,0.48c0.26,0,0.5-0.04,0.73-0.12c0.23-0.08,0.43-0.2,0.61-0.35c0.18-0.15,0.31-0.34,0.41-0.56
				c0.1-0.22,0.15-0.47,0.15-0.76c0-0.52-0.16-0.96-0.46-1.3s-0.73-0.51-1.25-0.51h-0.64v-1.34h0.6c0.49,0,0.85-0.14,1.1-0.42
				c0.25-0.28,0.37-0.61,0.37-1.01c0-0.2-0.04-0.39-0.11-0.56c-0.08-0.18-0.18-0.33-0.32-0.47c-0.14-0.14-0.31-0.25-0.5-0.33
				S217.08,19,216.84,19c-0.26,0-0.49,0.04-0.69,0.12s-0.37,0.19-0.51,0.33c-0.14,0.14-0.25,0.3-0.32,0.48
				c-0.08,0.18-0.11,0.37-0.11,0.57c0,0.22,0.02,0.41,0.07,0.59h-1.71c-0.04-0.09-0.07-0.2-0.09-0.34
				c-0.02-0.14-0.03-0.29-0.03-0.43c0-0.37,0.09-0.72,0.26-1.06c0.17-0.33,0.41-0.62,0.71-0.87s0.66-0.44,1.07-0.59
				c0.41-0.14,0.87-0.21,1.36-0.21c0.47,0,0.91,0.07,1.31,0.21c0.41,0.14,0.76,0.34,1.06,0.59c0.3,0.25,0.53,0.54,0.7,0.87
				c0.17,0.33,0.26,0.69,0.26,1.06c0,0.54-0.13,1.01-0.39,1.41c-0.26,0.4-0.6,0.67-1.03,0.84v0.06c0.23,0.08,0.45,0.19,0.66,0.34
				c0.21,0.15,0.39,0.34,0.55,0.56s0.28,0.48,0.38,0.76c0.09,0.29,0.14,0.6,0.14,0.96c0,0.43-0.1,0.83-0.29,1.19
				c-0.19,0.37-0.45,0.69-0.78,0.96c-0.33,0.27-0.72,0.49-1.17,0.64c-0.45,0.16-0.94,0.24-1.45,0.24c-0.54,0-1.04-0.07-1.49-0.22
				c-0.45-0.15-0.84-0.35-1.17-0.61c-0.32-0.26-0.57-0.58-0.75-0.94C213.23,26.13,213.14,25.73,213.14,25.29z"/>
			<path class="st3" d="M227.26,21.44c0-0.34-0.04-0.67-0.11-0.96c-0.08-0.3-0.19-0.56-0.34-0.78c-0.15-0.22-0.34-0.39-0.57-0.51
				c-0.23-0.12-0.5-0.19-0.8-0.19c-0.31,0-0.57,0.06-0.8,0.19c-0.23,0.12-0.42,0.3-0.57,0.51c-0.15,0.22-0.27,0.48-0.34,0.78
				c-0.08,0.3-0.11,0.62-0.11,0.96v1.89c0,0.88,0.09,1.74,0.27,2.59c0.09,0.43,0.2,0.82,0.31,1.17s0.23,0.67,0.36,0.94h-1.77
				c-0.27-0.51-0.5-1.21-0.69-2.09c-0.18-0.85-0.27-1.73-0.27-2.66v-1.94c0-0.57,0.09-1.09,0.27-1.56c0.18-0.47,0.43-0.86,0.75-1.19
				c0.32-0.32,0.7-0.57,1.14-0.75c0.44-0.18,0.93-0.26,1.45-0.26c0.52,0,1.01,0.09,1.45,0.27c0.44,0.18,0.83,0.44,1.15,0.76
				c0.32,0.33,0.58,0.72,0.76,1.19c0.18,0.46,0.27,0.98,0.27,1.55v1.93c0,0.88-0.1,1.76-0.29,2.66c-0.18,0.86-0.41,1.55-0.69,2.09
				h-1.77c0.13-0.28,0.25-0.59,0.36-0.94c0.11-0.35,0.21-0.74,0.31-1.18c0.18-0.85,0.27-1.71,0.27-2.59V21.44z"/>
			<path class="st3" d="M230.7,17.83h1.8v6.93c0,0.63,0.17,1.14,0.51,1.53c0.34,0.39,0.78,0.59,1.32,0.59
				c0.27,0,0.51-0.05,0.74-0.14c0.22-0.09,0.42-0.21,0.58-0.37c0.16-0.15,0.29-0.33,0.37-0.54c0.09-0.21,0.13-0.43,0.13-0.67
				c0-0.2-0.02-0.38-0.05-0.53c-0.03-0.15-0.08-0.29-0.14-0.42c-0.06-0.13-0.13-0.25-0.21-0.37s-0.18-0.25-0.29-0.39
				c-0.12-0.14-0.22-0.29-0.32-0.43c-0.1-0.14-0.19-0.29-0.26-0.46s-0.13-0.34-0.16-0.54c-0.04-0.2-0.06-0.43-0.07-0.69h1.73
				c0.02,0.3,0.08,0.57,0.19,0.79c0.11,0.22,0.27,0.48,0.49,0.76c0.09,0.13,0.18,0.25,0.26,0.36s0.14,0.22,0.2,0.33
				c0.06,0.11,0.11,0.22,0.16,0.34s0.09,0.25,0.14,0.41c0.09,0.3,0.13,0.65,0.13,1.03c0,0.44-0.1,0.84-0.29,1.19
				s-0.46,0.67-0.79,0.92c-0.33,0.26-0.71,0.46-1.15,0.59c-0.44,0.14-0.9,0.21-1.39,0.21c-0.52,0-1.01-0.08-1.45-0.23
				s-0.83-0.37-1.15-0.67c-0.32-0.29-0.58-0.64-0.76-1.06c-0.18-0.41-0.27-0.89-0.27-1.42V17.83z"/>
			<path class="st3" d="M70.62,36.82h1.8v6.93c0,0.63,0.17,1.14,0.51,1.53c0.34,0.39,0.78,0.59,1.32,0.59
				c0.27,0,0.51-0.05,0.74-0.14c0.22-0.09,0.42-0.21,0.58-0.37c0.16-0.15,0.29-0.33,0.37-0.54c0.09-0.21,0.13-0.43,0.13-0.67
				c0-0.2-0.02-0.38-0.05-0.53c-0.03-0.15-0.08-0.29-0.14-0.42c-0.06-0.13-0.13-0.25-0.21-0.37s-0.18-0.25-0.29-0.39
				c-0.12-0.14-0.22-0.29-0.32-0.43c-0.1-0.14-0.19-0.29-0.26-0.46s-0.13-0.34-0.16-0.54c-0.04-0.2-0.06-0.43-0.07-0.69h1.73
				c0.02,0.3,0.08,0.57,0.19,0.79c0.11,0.22,0.27,0.48,0.49,0.76c0.09,0.13,0.18,0.25,0.26,0.36s0.14,0.22,0.2,0.33
				c0.06,0.11,0.11,0.22,0.16,0.34s0.09,0.25,0.14,0.41c0.09,0.3,0.13,0.65,0.13,1.03c0,0.44-0.1,0.84-0.29,1.19
				s-0.46,0.67-0.79,0.92c-0.33,0.26-0.71,0.46-1.15,0.59c-0.44,0.14-0.9,0.21-1.39,0.21c-0.52,0-1.01-0.08-1.45-0.23
				s-0.83-0.37-1.15-0.67c-0.32-0.29-0.58-0.64-0.76-1.06c-0.18-0.41-0.27-0.89-0.27-1.42V36.82z"/>
			<path class="st3" d="M78.82,43.8c0-0.32,0.04-0.63,0.12-0.92c0.08-0.29,0.18-0.55,0.29-0.78h1.72c-0.23,0.56-0.34,1.11-0.34,1.64
				c0,0.3,0.04,0.59,0.13,0.84c0.09,0.26,0.21,0.48,0.38,0.66c0.17,0.19,0.37,0.33,0.6,0.44s0.49,0.16,0.78,0.16
				s0.55-0.05,0.79-0.16s0.44-0.26,0.6-0.44c0.16-0.19,0.29-0.41,0.38-0.66c0.09-0.26,0.14-0.54,0.14-0.84
				c0-0.49-0.07-0.91-0.2-1.28c-0.13-0.37-0.3-0.68-0.5-0.95c-0.1-0.13-0.23-0.28-0.36-0.44s-0.3-0.34-0.48-0.53
				c-0.22-0.24-0.42-0.48-0.6-0.71c-0.18-0.24-0.34-0.5-0.46-0.79c-0.13-0.29-0.23-0.6-0.31-0.96s-0.12-0.77-0.13-1.26h1.79
				c0,0.62,0.1,1.15,0.31,1.59s0.5,0.88,0.89,1.31c0.22,0.24,0.41,0.46,0.57,0.66s0.3,0.38,0.43,0.54c0.24,0.33,0.44,0.73,0.6,1.2
				c0.17,0.48,0.26,1.03,0.26,1.67c0,0.5-0.09,0.96-0.29,1.38c-0.19,0.42-0.45,0.79-0.79,1.1c-0.33,0.31-0.73,0.55-1.18,0.73
				c-0.45,0.18-0.94,0.26-1.46,0.26c-0.53,0-1.02-0.09-1.47-0.26s-0.83-0.42-1.16-0.72c-0.32-0.3-0.58-0.67-0.76-1.09
				C78.91,44.77,78.82,44.3,78.82,43.8z"/>
			<path class="st3" d="M92.95,40.44c0-0.34-0.04-0.67-0.11-0.96c-0.08-0.3-0.19-0.56-0.34-0.78c-0.15-0.22-0.34-0.39-0.57-0.51
				c-0.23-0.12-0.5-0.19-0.8-0.19c-0.31,0-0.57,0.06-0.8,0.19c-0.23,0.12-0.42,0.3-0.57,0.51c-0.15,0.22-0.27,0.48-0.34,0.78
				c-0.08,0.3-0.11,0.62-0.11,0.96v1.89c0,0.88,0.09,1.74,0.27,2.59c0.09,0.43,0.2,0.82,0.31,1.17s0.23,0.67,0.36,0.94h-1.77
				c-0.27-0.51-0.5-1.21-0.69-2.09c-0.18-0.85-0.27-1.73-0.27-2.66v-1.94c0-0.57,0.09-1.09,0.27-1.56c0.18-0.47,0.43-0.86,0.75-1.19
				c0.32-0.32,0.7-0.57,1.14-0.75c0.44-0.18,0.93-0.26,1.45-0.26c0.52,0,1.01,0.09,1.45,0.27c0.44,0.18,0.83,0.44,1.15,0.76
				c0.32,0.33,0.58,0.72,0.76,1.19c0.18,0.46,0.27,0.98,0.27,1.55v1.93c0,0.88-0.1,1.76-0.29,2.66c-0.18,0.86-0.41,1.55-0.69,2.09
				h-1.77c0.13-0.28,0.25-0.59,0.36-0.94c0.11-0.35,0.21-0.74,0.31-1.18c0.18-0.85,0.27-1.71,0.27-2.59V40.44z"/>
			<path class="st3" d="M96.33,39.52c0-0.9,0.27-1.57,0.8-2.02c0.53-0.45,1.33-0.68,2.39-0.68h3.33v1.44h-3.23
				c-0.99,0-1.49,0.45-1.49,1.34v1.6h0.03c0.22-0.34,0.55-0.62,0.98-0.82c0.43-0.2,0.91-0.31,1.42-0.31c0.45,0,0.87,0.09,1.26,0.26
				c0.4,0.17,0.74,0.42,1.04,0.73c0.3,0.31,0.54,0.69,0.71,1.12c0.17,0.43,0.26,0.91,0.26,1.44c0,0.54-0.09,1.04-0.29,1.49
				c-0.19,0.45-0.45,0.83-0.79,1.15c-0.33,0.32-0.73,0.57-1.19,0.74s-0.95,0.26-1.49,0.26c-0.54,0-1.05-0.09-1.51-0.26
				s-0.86-0.42-1.19-0.74c-0.33-0.31-0.59-0.7-0.78-1.14c-0.19-0.45-0.28-0.94-0.28-1.49V39.52z M102.03,43.7
				c0-0.67-0.18-1.2-0.54-1.59c-0.36-0.39-0.83-0.59-1.41-0.59c-0.59,0-1.07,0.2-1.45,0.59c-0.38,0.39-0.56,0.92-0.56,1.6
				c0,0.33,0.05,0.63,0.15,0.89c0.1,0.26,0.24,0.49,0.42,0.68c0.18,0.19,0.4,0.34,0.64,0.44c0.25,0.1,0.51,0.15,0.8,0.15
				s0.55-0.05,0.79-0.15c0.24-0.1,0.44-0.25,0.61-0.44c0.17-0.19,0.3-0.42,0.4-0.68C101.98,44.33,102.03,44.03,102.03,43.7z"/>
			<path class="st3" d="M108.63,44.52c0.11,0.5,0.39,0.86,0.83,1.05c0.44,0.2,0.98,0.29,1.63,0.29c0.29,0,0.59-0.03,0.89-0.09
				c0.29-0.06,0.56-0.16,0.79-0.3c0.23-0.14,0.42-0.31,0.56-0.52c0.14-0.21,0.21-0.46,0.21-0.74c0-0.4-0.12-0.75-0.35-1.05
				c-0.23-0.3-0.56-0.45-0.99-0.45h-0.36v-1.34h0.66c0.46-0.01,0.79-0.16,1.01-0.44c0.22-0.28,0.33-0.68,0.33-1.21
				c0-0.57-0.12-1.01-0.37-1.31c-0.25-0.3-0.59-0.45-1.03-0.45c-0.4,0-0.72,0.13-0.96,0.38c-0.24,0.25-0.36,0.61-0.36,1.06v0.51
				c0,0.49-0.07,0.93-0.22,1.34c-0.15,0.41-0.36,0.75-0.64,1.04c-0.28,0.29-0.61,0.51-0.99,0.67c-0.39,0.16-0.82,0.24-1.31,0.24
				c-0.49,0-0.93-0.08-1.32-0.24s-0.73-0.38-1.01-0.67s-0.49-0.63-0.64-1.04c-0.15-0.4-0.22-0.85-0.22-1.34
				c0-0.5,0.07-0.95,0.22-1.36c0.15-0.41,0.35-0.76,0.62-1.06c0.27-0.3,0.59-0.52,0.97-0.69c0.38-0.16,0.8-0.24,1.27-0.24
				c0.58,0,1.08,0.11,1.49,0.34c0.41,0.23,0.74,0.59,0.99,1.09h0.06c0.19-0.46,0.49-0.81,0.91-1.06c0.41-0.25,0.89-0.37,1.44-0.37
				c0.4,0,0.77,0.07,1.12,0.22c0.35,0.15,0.65,0.35,0.91,0.61c0.26,0.26,0.46,0.57,0.61,0.93s0.22,0.75,0.22,1.18
				c0,1.28-0.51,2.13-1.53,2.54v0.06c0.4,0.19,0.71,0.48,0.92,0.88c0.21,0.4,0.32,0.87,0.32,1.42c0,0.43-0.1,0.82-0.31,1.16
				c-0.21,0.35-0.5,0.65-0.88,0.9c-0.38,0.25-0.82,0.45-1.34,0.58c-0.52,0.13-1.08,0.2-1.69,0.2c-0.6,0-1.15-0.05-1.66-0.17
				c-0.5-0.11-0.94-0.28-1.31-0.51c-0.37-0.23-0.67-0.51-0.89-0.86c-0.22-0.34-0.34-0.75-0.37-1.21H108.63z M109.57,39.91
				c0-0.61-0.14-1.09-0.43-1.45c-0.29-0.36-0.68-0.54-1.17-0.54c-0.51,0-0.91,0.18-1.18,0.54s-0.41,0.84-0.41,1.44
				s0.13,1.08,0.4,1.43s0.66,0.53,1.17,0.53s0.91-0.18,1.19-0.53C109.43,40.99,109.57,40.51,109.57,39.91z"/>
			<path class="st3" d="M125.74,40.34c0-0.78-0.13-1.37-0.39-1.76c-0.26-0.39-0.61-0.59-1.04-0.59c-0.36,0-0.66,0.15-0.9,0.44
				s-0.36,0.71-0.36,1.26v4.42h-1.69v-4.42c0-0.55-0.12-0.97-0.36-1.27c-0.24-0.29-0.53-0.44-0.89-0.44c-0.44,0-0.79,0.2-1.04,0.6
				c-0.26,0.4-0.39,0.98-0.39,1.73v1.94c0,0.42,0.03,0.84,0.08,1.27s0.13,0.87,0.24,1.33c0.11,0.46,0.22,0.87,0.35,1.22
				c0.13,0.36,0.27,0.67,0.44,0.94h-1.8c-0.3-0.49-0.57-1.18-0.79-2.07c-0.2-0.89-0.3-1.79-0.3-2.7v-1.99
				c0-0.56,0.08-1.07,0.23-1.52c0.15-0.45,0.36-0.84,0.63-1.16s0.58-0.57,0.95-0.74c0.37-0.17,0.76-0.26,1.19-0.26
				c0.52,0,0.99,0.12,1.4,0.36c0.41,0.24,0.7,0.59,0.87,1.06h0.04c0.18-0.47,0.48-0.82,0.89-1.06c0.41-0.24,0.88-0.36,1.39-0.36
				c0.45,0,0.86,0.09,1.23,0.26c0.37,0.17,0.69,0.41,0.95,0.73c0.26,0.31,0.47,0.7,0.62,1.16c0.15,0.46,0.22,0.97,0.22,1.54v1.99
				c0,0.95-0.11,1.85-0.31,2.7c-0.2,0.88-0.47,1.57-0.8,2.07h-1.8c0.32-0.54,0.6-1.26,0.81-2.14c0.21-0.88,0.31-1.75,0.31-2.62
				V40.34z"/>
			<path class="st3" d="M137.11,43.57c0-0.7-0.12-1.22-0.36-1.57c-0.24-0.35-0.56-0.53-0.96-0.53c-0.33,0-0.6,0.14-0.81,0.41
				s-0.31,0.64-0.31,1.09v2.21h-1.64v-2.2c0-0.49-0.1-0.86-0.3-1.12c-0.2-0.26-0.46-0.39-0.79-0.39c-0.38,0-0.7,0.17-0.96,0.49
				c-0.26,0.33-0.39,0.86-0.39,1.58c0,1.28,0.33,2.44,0.99,3.49h-1.77c-0.35-0.56-0.61-1.15-0.76-1.77
				c-0.16-0.67-0.24-1.5-0.24-2.49c0-1.63,0.37-2.85,1.1-3.66c0.73-0.81,1.75-1.33,3.04-1.57l1.33-0.26
				c0.44-0.08,0.71-0.23,0.82-0.46h1.79c-0.07,0.51-0.27,0.92-0.62,1.21c-0.35,0.29-0.9,0.5-1.65,0.62l-1.26,0.2
				c-0.83,0.14-1.53,0.39-2.09,0.74c-0.57,0.35-0.92,0.86-1.06,1.54h0.04c0.18-0.33,0.44-0.59,0.79-0.76
				c0.34-0.18,0.69-0.26,1.03-0.26c0.4,0,0.76,0.11,1.07,0.32c0.31,0.21,0.55,0.54,0.72,0.96h0.04c0.2-0.41,0.49-0.73,0.86-0.95
				c0.38-0.22,0.8-0.34,1.26-0.34c0.4,0,0.77,0.08,1.12,0.24s0.65,0.39,0.91,0.68c0.26,0.29,0.46,0.64,0.61,1.06
				c0.15,0.42,0.23,0.87,0.23,1.38c0,0.74-0.08,1.4-0.25,1.97c-0.17,0.57-0.42,1.11-0.75,1.6h-1.77c0.33-0.54,0.58-1.09,0.74-1.64
				C137.03,44.83,137.11,44.22,137.11,43.57z"/>
			<path class="st3" d="M139.97,43.62c0-0.52,0.09-1,0.26-1.44c0.17-0.43,0.4-0.8,0.69-1.11c0.29-0.3,0.63-0.54,1.03-0.71
				c0.4-0.17,0.82-0.26,1.26-0.26c0.51,0,0.99,0.1,1.43,0.31s0.77,0.48,1,0.82h0.03v-1.36c0-0.31-0.05-0.59-0.15-0.82
				c-0.1-0.23-0.23-0.43-0.39-0.59s-0.35-0.28-0.58-0.36c-0.22-0.08-0.46-0.12-0.69-0.12c-0.44,0-0.82,0.11-1.15,0.33
				c-0.33,0.22-0.52,0.5-0.56,0.86h-1.84c0-0.3,0.09-0.61,0.28-0.93c0.19-0.31,0.44-0.6,0.75-0.84c0.31-0.25,0.68-0.45,1.11-0.61
				s0.88-0.23,1.38-0.22c0.54,0,1.04,0.08,1.49,0.23c0.45,0.15,0.84,0.37,1.16,0.65c0.32,0.28,0.57,0.62,0.74,1.01
				c0.18,0.4,0.26,0.84,0.26,1.32v3.84c0,0.54-0.09,1.04-0.28,1.49c-0.19,0.45-0.45,0.83-0.78,1.14c-0.33,0.31-0.73,0.56-1.19,0.74
				c-0.46,0.18-0.96,0.26-1.51,0.26c-0.53,0-1.03-0.09-1.49-0.26c-0.46-0.18-0.85-0.42-1.19-0.74c-0.33-0.32-0.6-0.7-0.79-1.15
				C140.07,44.66,139.97,44.17,139.97,43.62z M145.73,43.7c0-0.67-0.19-1.2-0.56-1.59s-0.86-0.59-1.45-0.59
				c-0.58,0-1.05,0.2-1.41,0.59s-0.54,0.92-0.54,1.59c0,0.66,0.18,1.18,0.54,1.57c0.36,0.39,0.83,0.59,1.4,0.59
				c0.29,0,0.55-0.05,0.8-0.15c0.25-0.1,0.46-0.25,0.64-0.44c0.18-0.19,0.32-0.42,0.42-0.68C145.68,44.33,145.73,44.03,145.73,43.7z
				"/>
			<path class="st3" d="M148.72,43.8c0-0.32,0.04-0.63,0.12-0.92c0.08-0.29,0.18-0.55,0.29-0.78h1.72
				c-0.23,0.56-0.34,1.11-0.34,1.64c0,0.3,0.04,0.59,0.13,0.84c0.09,0.26,0.21,0.48,0.38,0.66c0.17,0.19,0.37,0.33,0.6,0.44
				s0.49,0.16,0.78,0.16s0.55-0.05,0.79-0.16s0.44-0.26,0.6-0.44c0.16-0.19,0.29-0.41,0.38-0.66c0.09-0.26,0.14-0.54,0.14-0.84
				c0-0.49-0.07-0.91-0.2-1.28c-0.13-0.37-0.3-0.68-0.5-0.95c-0.1-0.13-0.23-0.28-0.36-0.44s-0.3-0.34-0.48-0.53
				c-0.22-0.24-0.42-0.48-0.6-0.71c-0.18-0.24-0.34-0.5-0.46-0.79c-0.13-0.29-0.23-0.6-0.31-0.96s-0.12-0.77-0.13-1.26h1.79
				c0,0.62,0.1,1.15,0.31,1.59s0.5,0.88,0.89,1.31c0.22,0.24,0.41,0.46,0.57,0.66s0.3,0.38,0.43,0.54c0.24,0.33,0.44,0.73,0.6,1.2
				c0.17,0.48,0.26,1.03,0.26,1.67c0,0.5-0.09,0.96-0.29,1.38c-0.19,0.42-0.45,0.79-0.79,1.1c-0.33,0.31-0.73,0.55-1.18,0.73
				c-0.45,0.18-0.94,0.26-1.46,0.26c-0.53,0-1.02-0.09-1.47-0.26s-0.83-0.42-1.16-0.72c-0.32-0.3-0.58-0.67-0.76-1.09
				C148.81,44.77,148.72,44.3,148.72,43.8z"/>
			<path class="st3" d="M157.16,41.65c0-0.92,0.14-1.79,0.42-2.63c0.28-0.84,0.64-1.57,1.08-2.2h1.69c-0.4,0.66-0.73,1.4-0.99,2.21
				c-0.26,0.82-0.39,1.68-0.39,2.57c0,0.73,0.07,1.37,0.22,1.9s0.35,0.97,0.6,1.32c0.25,0.35,0.55,0.6,0.89,0.77s0.7,0.25,1.09,0.25
				c0.29,0,0.57-0.04,0.84-0.14c0.26-0.09,0.49-0.22,0.68-0.38s0.34-0.35,0.45-0.58c0.11-0.22,0.16-0.47,0.16-0.74
				c0-0.29-0.04-0.55-0.13-0.78c-0.08-0.23-0.2-0.43-0.36-0.6c-0.15-0.17-0.34-0.3-0.55-0.39c-0.21-0.09-0.45-0.14-0.71-0.14h-0.86
				v-1.39h1.01c0.4,0,0.71-0.09,0.93-0.26c0.22-0.18,0.33-0.42,0.33-0.74c0-0.15-0.02-0.28-0.05-0.39s-0.08-0.2-0.14-0.29
				c-0.06-0.09-0.13-0.18-0.21-0.26c-0.09-0.08-0.18-0.17-0.29-0.28c-0.12-0.11-0.24-0.22-0.35-0.33c-0.11-0.1-0.2-0.22-0.28-0.35
				s-0.14-0.27-0.19-0.44s-0.08-0.35-0.09-0.57h1.67c0.04,0.23,0.12,0.42,0.24,0.59s0.3,0.36,0.54,0.59
				c0.14,0.13,0.27,0.26,0.37,0.37c0.1,0.11,0.2,0.23,0.28,0.36c0.08,0.12,0.14,0.26,0.19,0.42c0.04,0.16,0.07,0.34,0.08,0.55
				c0,0.38-0.11,0.72-0.34,1.01c-0.23,0.29-0.56,0.51-1,0.67v0.06c0.23,0.09,0.45,0.21,0.65,0.37s0.38,0.36,0.53,0.59
				c0.15,0.23,0.27,0.5,0.36,0.79c0.09,0.3,0.14,0.62,0.14,0.97c0,0.44-0.1,0.85-0.3,1.23s-0.47,0.71-0.82,0.99
				c-0.35,0.28-0.76,0.5-1.24,0.66s-0.99,0.24-1.54,0.24c-0.65,0-1.25-0.11-1.81-0.34c-0.56-0.23-1.05-0.57-1.46-1.04
				c-0.42-0.46-0.75-1.05-0.99-1.75S157.16,42.6,157.16,41.65z"/>
			<path class="st3" d="M172.44,40.44c0-0.34-0.04-0.67-0.11-0.96c-0.08-0.3-0.19-0.56-0.34-0.78c-0.15-0.22-0.34-0.39-0.57-0.51
				c-0.23-0.12-0.5-0.19-0.8-0.19c-0.31,0-0.57,0.06-0.8,0.19c-0.23,0.12-0.42,0.3-0.57,0.51c-0.15,0.22-0.27,0.48-0.34,0.78
				c-0.08,0.3-0.11,0.62-0.11,0.96v1.89c0,0.88,0.09,1.74,0.27,2.59c0.09,0.43,0.2,0.82,0.31,1.17s0.23,0.67,0.36,0.94h-1.77
				c-0.27-0.51-0.5-1.21-0.69-2.09c-0.18-0.85-0.27-1.73-0.27-2.66v-1.94c0-0.57,0.09-1.09,0.27-1.56c0.18-0.47,0.43-0.86,0.75-1.19
				c0.32-0.32,0.7-0.57,1.14-0.75c0.44-0.18,0.93-0.26,1.45-0.26c0.52,0,1.01,0.09,1.45,0.27c0.44,0.18,0.83,0.44,1.15,0.76
				c0.32,0.33,0.58,0.72,0.76,1.19c0.18,0.46,0.27,0.98,0.27,1.55v1.93c0,0.88-0.1,1.76-0.29,2.66c-0.18,0.86-0.41,1.55-0.69,2.09
				h-1.77c0.13-0.28,0.25-0.59,0.36-0.94c0.11-0.35,0.21-0.74,0.31-1.18c0.18-0.85,0.27-1.71,0.27-2.59V40.44z"/>
			<path class="st3" d="M184.6,40.34c0-0.78-0.13-1.37-0.39-1.76c-0.26-0.39-0.61-0.59-1.04-0.59c-0.36,0-0.66,0.15-0.9,0.44
				s-0.36,0.71-0.36,1.26v4.42h-1.69v-4.42c0-0.55-0.12-0.97-0.36-1.27c-0.24-0.29-0.53-0.44-0.89-0.44c-0.44,0-0.79,0.2-1.04,0.6
				c-0.26,0.4-0.39,0.98-0.39,1.73v1.94c0,0.42,0.03,0.84,0.08,1.27s0.13,0.87,0.24,1.33c0.11,0.46,0.22,0.87,0.35,1.22
				c0.13,0.36,0.27,0.67,0.44,0.94h-1.8c-0.3-0.49-0.57-1.18-0.79-2.07c-0.2-0.89-0.3-1.79-0.3-2.7v-1.99
				c0-0.56,0.08-1.07,0.23-1.52c0.15-0.45,0.36-0.84,0.63-1.16s0.58-0.57,0.95-0.74c0.37-0.17,0.76-0.26,1.19-0.26
				c0.52,0,0.99,0.12,1.4,0.36c0.41,0.24,0.7,0.59,0.87,1.06h0.04c0.18-0.47,0.48-0.82,0.89-1.06c0.41-0.24,0.88-0.36,1.39-0.36
				c0.45,0,0.86,0.09,1.23,0.26c0.37,0.17,0.69,0.41,0.95,0.73c0.26,0.31,0.47,0.7,0.62,1.16c0.15,0.46,0.22,0.97,0.22,1.54v1.99
				c0,0.95-0.11,1.85-0.31,2.7c-0.2,0.88-0.47,1.57-0.8,2.07h-1.8c0.32-0.54,0.6-1.26,0.81-2.14c0.21-0.88,0.31-1.75,0.31-2.62
				V40.34z"/>
			<path class="st3" d="M192.02,36.82h1.8v6.93c0,0.63,0.17,1.14,0.51,1.53c0.34,0.39,0.78,0.59,1.32,0.59
				c0.27,0,0.51-0.05,0.74-0.14c0.22-0.09,0.42-0.21,0.58-0.37c0.16-0.15,0.29-0.33,0.37-0.54c0.09-0.21,0.13-0.43,0.13-0.67
				c0-0.2-0.02-0.38-0.05-0.53c-0.03-0.15-0.08-0.29-0.14-0.42c-0.06-0.13-0.13-0.25-0.21-0.37s-0.18-0.25-0.29-0.39
				c-0.12-0.14-0.22-0.29-0.32-0.43c-0.1-0.14-0.19-0.29-0.26-0.46s-0.13-0.34-0.16-0.54c-0.04-0.2-0.06-0.43-0.07-0.69h1.73
				c0.02,0.3,0.08,0.57,0.19,0.79c0.11,0.22,0.27,0.48,0.49,0.76c0.09,0.13,0.18,0.25,0.26,0.36s0.14,0.22,0.2,0.33
				c0.06,0.11,0.11,0.22,0.16,0.34s0.09,0.25,0.14,0.41c0.09,0.3,0.13,0.65,0.13,1.03c0,0.44-0.1,0.84-0.29,1.19
				s-0.46,0.67-0.79,0.92c-0.33,0.26-0.71,0.46-1.15,0.59c-0.44,0.14-0.9,0.21-1.39,0.21c-0.52,0-1.01-0.08-1.45-0.23
				s-0.83-0.37-1.15-0.67c-0.32-0.29-0.58-0.64-0.76-1.06c-0.18-0.41-0.27-0.89-0.27-1.42V36.82z"/>
			<path class="st3" d="M206.01,40.44c0-0.34-0.04-0.67-0.11-0.96c-0.08-0.3-0.19-0.56-0.34-0.78c-0.15-0.22-0.34-0.39-0.57-0.51
				c-0.23-0.12-0.5-0.19-0.8-0.19c-0.31,0-0.57,0.06-0.8,0.19c-0.23,0.12-0.42,0.3-0.57,0.51c-0.15,0.22-0.27,0.48-0.34,0.78
				c-0.08,0.3-0.11,0.62-0.11,0.96v1.89c0,0.88,0.09,1.74,0.27,2.59c0.09,0.43,0.2,0.82,0.31,1.17s0.23,0.67,0.36,0.94h-1.77
				c-0.27-0.51-0.5-1.21-0.69-2.09c-0.18-0.85-0.27-1.73-0.27-2.66v-1.94c0-0.57,0.09-1.09,0.27-1.56c0.18-0.47,0.43-0.86,0.75-1.19
				c0.32-0.32,0.7-0.57,1.14-0.75c0.44-0.18,0.93-0.26,1.45-0.26c0.52,0,1.01,0.09,1.45,0.27c0.44,0.18,0.83,0.44,1.15,0.76
				c0.32,0.33,0.58,0.72,0.76,1.19c0.18,0.46,0.27,0.98,0.27,1.55v1.93c0,0.88-0.1,1.76-0.29,2.66c-0.18,0.86-0.41,1.55-0.69,2.09
				h-1.77c0.13-0.28,0.25-0.59,0.36-0.94c0.11-0.35,0.21-0.74,0.31-1.18c0.18-0.85,0.27-1.71,0.27-2.59V40.44z"/>
			<path class="st3" d="M209.45,36.82h1.8v6.93c0,0.63,0.17,1.14,0.51,1.53c0.34,0.39,0.78,0.59,1.32,0.59
				c0.27,0,0.51-0.05,0.74-0.14c0.22-0.09,0.42-0.21,0.58-0.37c0.16-0.15,0.29-0.33,0.37-0.54c0.09-0.21,0.13-0.43,0.13-0.67
				c0-0.2-0.02-0.38-0.05-0.53c-0.03-0.15-0.08-0.29-0.14-0.42c-0.06-0.13-0.13-0.25-0.21-0.37s-0.18-0.25-0.29-0.39
				c-0.12-0.14-0.22-0.29-0.32-0.43c-0.1-0.14-0.19-0.29-0.26-0.46s-0.13-0.34-0.16-0.54c-0.04-0.2-0.06-0.43-0.07-0.69h1.73
				c0.02,0.3,0.08,0.57,0.19,0.79c0.11,0.22,0.27,0.48,0.49,0.76c0.09,0.13,0.18,0.25,0.26,0.36s0.14,0.22,0.2,0.33
				c0.06,0.11,0.11,0.22,0.16,0.34s0.09,0.25,0.14,0.41c0.09,0.3,0.13,0.65,0.13,1.03c0,0.44-0.1,0.84-0.29,1.19
				s-0.46,0.67-0.79,0.92c-0.33,0.26-0.71,0.46-1.15,0.59c-0.44,0.14-0.9,0.21-1.39,0.21c-0.52,0-1.01-0.08-1.45-0.23
				s-0.83-0.37-1.15-0.67c-0.32-0.29-0.58-0.64-0.76-1.06c-0.18-0.41-0.27-0.89-0.27-1.42V36.82z"/>
			<path class="st3" d="M217.76,42.11c0-0.73,0.11-1.4,0.31-1.99c0.21-0.59,0.5-1.11,0.86-1.54c0.36-0.43,0.79-0.79,1.27-1.06
				c0.49-0.27,1-0.46,1.56-0.55h0.11c-0.05-0.17-0.07-0.35-0.07-0.53h1.47c0,0.09-0.01,0.18-0.02,0.29
				c-0.01,0.11-0.03,0.19-0.04,0.24h0.1c0.55,0.09,1.07,0.26,1.56,0.54c0.49,0.27,0.91,0.62,1.28,1.06s0.66,0.95,0.86,1.54
				c0.21,0.6,0.31,1.26,0.31,2.01c0,0.82-0.12,1.55-0.37,2.19c-0.25,0.64-0.59,1.18-1.02,1.62c-0.43,0.44-0.94,0.77-1.52,1
				c-0.58,0.23-1.21,0.34-1.87,0.34c-0.67,0.01-1.29-0.1-1.87-0.34s-1.09-0.57-1.53-1.01s-0.78-0.99-1.03-1.63
				C217.87,43.65,217.75,42.92,217.76,42.11z M225.56,42.11c0-1.07-0.21-1.91-0.64-2.54c-0.42-0.62-0.98-1.04-1.67-1.26l-0.03,0.01
				c0.06,0.34,0.1,0.72,0.14,1.14c0.03,0.42,0.05,0.81,0.05,1.18v2.02h-1.76v-2.04c0-0.89,0.07-1.65,0.2-2.29l-0.03-0.01
				c-0.72,0.24-1.29,0.66-1.7,1.25c-0.41,0.59-0.62,1.45-0.62,2.55c0,0.58,0.07,1.11,0.22,1.57s0.36,0.86,0.62,1.19
				c0.27,0.32,0.59,0.57,0.96,0.74c0.37,0.17,0.78,0.26,1.23,0.26c0.46,0,0.87-0.09,1.24-0.26c0.37-0.17,0.68-0.42,0.95-0.74
				c0.27-0.32,0.47-0.72,0.61-1.18C225.49,43.23,225.56,42.7,225.56,42.11z"/>
			<path class="st3" d="M228.36,44.18c0-0.53,0.09-1.01,0.26-1.43h1.71c-0.07,0.24-0.11,0.45-0.14,0.63
				c-0.03,0.18-0.04,0.39-0.04,0.63c0,0.57,0.17,1.02,0.5,1.35c0.33,0.33,0.77,0.49,1.31,0.49c0.57,0,1.01-0.18,1.33-0.54
				s0.47-0.82,0.47-1.39v-4.02c0-0.27-0.04-0.52-0.11-0.75s-0.18-0.44-0.31-0.61c-0.14-0.17-0.31-0.31-0.52-0.41
				c-0.21-0.1-0.45-0.15-0.71-0.15c-0.26,0-0.49,0.04-0.69,0.13c-0.21,0.09-0.38,0.2-0.52,0.35c-0.14,0.15-0.25,0.32-0.33,0.51
				s-0.11,0.4-0.11,0.61c0,0.25,0.03,0.49,0.09,0.73h-1.76c-0.08-0.25-0.11-0.52-0.11-0.83c0-0.39,0.08-0.76,0.25-1.12
				c0.17-0.35,0.4-0.66,0.7-0.93c0.3-0.27,0.66-0.48,1.09-0.64s0.89-0.24,1.41-0.24c0.53,0,1.01,0.08,1.44,0.25
				c0.43,0.17,0.79,0.4,1.09,0.69s0.53,0.63,0.69,1.03s0.24,0.82,0.24,1.26v4.16c0,0.5-0.09,0.95-0.26,1.35
				c-0.18,0.41-0.42,0.75-0.74,1.04c-0.32,0.29-0.7,0.51-1.14,0.67c-0.44,0.16-0.93,0.24-1.46,0.24c-0.54,0-1.03-0.07-1.47-0.22
				s-0.81-0.35-1.13-0.62c-0.31-0.27-0.56-0.59-0.73-0.97C228.45,45.07,228.36,44.65,228.36,44.18z"/>
			<path class="st3" d="M236.91,43.62c0-0.52,0.09-1,0.26-1.44c0.17-0.43,0.4-0.8,0.69-1.11c0.29-0.3,0.63-0.54,1.03-0.71
				c0.4-0.17,0.82-0.26,1.26-0.26c0.51,0,0.99,0.1,1.43,0.31s0.77,0.48,1,0.82h0.03v-1.36c0-0.31-0.05-0.59-0.15-0.82
				c-0.1-0.23-0.23-0.43-0.39-0.59s-0.35-0.28-0.58-0.36c-0.22-0.08-0.46-0.12-0.69-0.12c-0.44,0-0.82,0.11-1.15,0.33
				c-0.33,0.22-0.52,0.5-0.56,0.86h-1.84c0-0.3,0.09-0.61,0.28-0.93c0.19-0.31,0.44-0.6,0.75-0.84c0.31-0.25,0.68-0.45,1.11-0.61
				s0.88-0.23,1.38-0.22c0.54,0,1.04,0.08,1.49,0.23c0.45,0.15,0.84,0.37,1.16,0.65c0.32,0.28,0.57,0.62,0.74,1.01
				c0.18,0.4,0.26,0.84,0.26,1.32v3.84c0,0.54-0.09,1.04-0.28,1.49c-0.19,0.45-0.45,0.83-0.78,1.14c-0.33,0.31-0.73,0.56-1.19,0.74
				c-0.46,0.18-0.96,0.26-1.51,0.26c-0.53,0-1.03-0.09-1.49-0.26c-0.46-0.18-0.85-0.42-1.19-0.74c-0.33-0.32-0.6-0.7-0.79-1.15
				C237,44.66,236.91,44.17,236.91,43.62z M242.67,43.7c0-0.67-0.19-1.2-0.56-1.59s-0.86-0.59-1.45-0.59c-0.58,0-1.05,0.2-1.41,0.59
				s-0.54,0.92-0.54,1.59c0,0.66,0.18,1.18,0.54,1.57c0.36,0.39,0.83,0.59,1.4,0.59c0.29,0,0.55-0.05,0.8-0.15
				c0.25-0.1,0.46-0.25,0.64-0.44c0.18-0.19,0.32-0.42,0.42-0.68C242.62,44.33,242.67,44.03,242.67,43.7z"/>
			<path class="st3" d="M245.65,43.8c0-0.32,0.04-0.63,0.12-0.92c0.08-0.29,0.18-0.55,0.29-0.78h1.72
				c-0.23,0.56-0.34,1.11-0.34,1.64c0,0.3,0.04,0.59,0.13,0.84c0.09,0.26,0.21,0.48,0.38,0.66c0.17,0.19,0.37,0.33,0.6,0.44
				s0.49,0.16,0.78,0.16s0.55-0.05,0.79-0.16s0.44-0.26,0.6-0.44c0.16-0.19,0.29-0.41,0.38-0.66c0.09-0.26,0.14-0.54,0.14-0.84
				c0-0.49-0.07-0.91-0.2-1.28c-0.13-0.37-0.3-0.68-0.5-0.95c-0.1-0.13-0.23-0.28-0.36-0.44s-0.3-0.34-0.48-0.53
				c-0.22-0.24-0.42-0.48-0.6-0.71c-0.18-0.24-0.34-0.5-0.46-0.79c-0.13-0.29-0.23-0.6-0.31-0.96s-0.12-0.77-0.13-1.26h1.79
				c0,0.62,0.1,1.15,0.31,1.59s0.5,0.88,0.89,1.31c0.22,0.24,0.41,0.46,0.57,0.66s0.3,0.38,0.43,0.54c0.24,0.33,0.44,0.73,0.6,1.2
				c0.17,0.48,0.26,1.03,0.26,1.67c0,0.5-0.09,0.96-0.29,1.38c-0.19,0.42-0.45,0.79-0.79,1.1c-0.33,0.31-0.73,0.55-1.18,0.73
				c-0.45,0.18-0.94,0.26-1.46,0.26c-0.53,0-1.02-0.09-1.47-0.26s-0.83-0.42-1.16-0.72c-0.32-0.3-0.58-0.67-0.76-1.09
				C245.74,44.77,245.65,44.3,245.65,43.8z"/>
		</g>
	</g>
</g>
</svg>
